<svg height="512" viewBox="0 0 512 512" width="512" xmlns="http://www.w3.org/2000/svg"><g id="Flat"><path d="m248 258v214a16 16 0 0 1 -16 16h-144a16 16 0 0 1 -16-16v-214a88.029 88.029 0 0 1 56-82v-112h64v112a87.93 87.93 0 0 1 56 82z" fill="#61311c"/><path d="m248 258v214a16 16 0 0 1 -16 16h-144a16 16 0 0 1 -16-16v-82.56c62.28-37.37 121.34-90.15 170.37-162.47a87.709 87.709 0 0 1 5.63 31.03z" fill="#4f2816"/><path d="m114.5 242.544-15.169-5.088a63.706 63.706 0 0 1 37.4-39.1l5.82 14.905a47.743 47.743 0 0 0 -28.051 29.283z" fill="#7a432a"/><path d="m136 24h48a8 8 0 0 1 8 8v32a0 0 0 0 1 0 0h-64a0 0 0 0 1 0 0v-32a8 8 0 0 1 8-8z" fill="#c84431"/><path d="m128 64h64v88h-64z" fill="#c84431"/><path d="m104 264h112v176h-112z" fill="#f2dec2"/><g fill="#ffb531"><path d="m179.853 327.63c8.121-8.086 3.64-22.173-7.583-23.839a13.557 13.557 0 0 0 -24.54 0c-11.223 1.666-15.7 15.753-7.583 23.839-1.917 11.417 9.815 20.124 19.853 14.734 10.038 5.39 21.77-3.317 19.853-14.734z"/><path d="m128 368h64v16h-64z"/><path d="m136 400h48v16h-48z"/></g><path d="m128 56h64v16h-64z" fill="#b33522"/><path d="m336 456h48a32 32 0 0 1 32 32 0 0 0 0 1 0 0h-112a0 0 0 0 1 0 0 32 32 0 0 1 32-32z" fill="#e0e0de"/><path d="m336 456h48a32 32 0 0 1 32 32 0 0 0 0 1 0 0h-112a0 0 0 0 1 0 0 32 32 0 0 1 32-32z" fill="#e0e0de"/><path d="m376 320.05v135.95h-32v-136z" fill="#d9d9d7"/><path d="m376 320.05v38.38a82.031 82.031 0 0 1 -16.02 1.57q-2.76 0-5.55-.18a74.789 74.789 0 0 1 -10.43-1.43v-38.39z" fill="#cfcfcd"/><path d="m440 265.78a77.116 77.116 0 0 1 -23.43 55.32 80.435 80.435 0 0 1 -40.57 21.33 82.031 82.031 0 0 1 -16.02 1.57q-2.76 0-5.55-.18a74.789 74.789 0 0 1 -10.43-1.43 80.772 80.772 0 0 1 -45.79-28.18 79.085 79.085 0 0 1 -18.21-50.21v-.47a206.369 206.369 0 0 1 8.23-55.29l11.76-40.24h120.01l.65 2.24 11.11 38a205.4 205.4 0 0 1 8.23 55.76c.01.59.01 1.19.01 1.78z" fill="#e0e0de"/><path d="m321.677 242.316-15.861-2.1a231.929 231.929 0 0 1 6.1-30.328l5.7-20.985 15.441 4.2-5.7 20.987a215.683 215.683 0 0 0 -5.68 28.226z" fill="#ebebe9"/><path d="m440 265.78a77.116 77.116 0 0 1 -23.43 55.32 80.435 80.435 0 0 1 -40.57 21.33 82.031 82.031 0 0 1 -16.02 1.57q-2.76 0-5.55-.18a74.789 74.789 0 0 1 -10.43-1.43 80.772 80.772 0 0 1 -45.79-28.18c50.13-29.3 95.05-75.17 122.44-143.97l11.11 38a205.4 205.4 0 0 1 8.23 55.76c.01.59.01 1.19.01 1.78z" fill="#d9d9d7"/><path d="m440 265.78a77.116 77.116 0 0 1 -23.43 55.32 80.435 80.435 0 0 1 -40.57 21.33 82.031 82.031 0 0 1 -16.02 1.57q-2.76 0-5.55-.18a74.789 74.789 0 0 1 -10.43-1.43 80.772 80.772 0 0 1 -45.79-28.18 79.085 79.085 0 0 1 -18.21-50.21h159.99c.01.59.01 1.19.01 1.78z" fill="#c84431"/><path d="m440 265.78a77.116 77.116 0 0 1 -23.43 55.32 80.435 80.435 0 0 1 -40.57 21.33 82.031 82.031 0 0 1 -16.02 1.57q-2.76 0-5.55-.18a74.789 74.789 0 0 1 -10.43-1.43 80.772 80.772 0 0 1 -45.79-28.18 283.2 283.2 0 0 0 63.39-50.21h78.39c.01.59.01 1.19.01 1.78z" fill="#bb3e2d"/></g></svg>