<?xml version="1.0"?>
<svg xmlns="http://www.w3.org/2000/svg" viewBox="0 0 512 512" width="512" height="512"><g id="Flat"><path d="M493.35,178.05l-76.68-69.01,15.2-83.61a7.995,7.995,0,0,0-12.94-7.61,2.971,2.971,0,0,0-.34.28L324.89,104H187.11L93.41,18.1a8,8,0,0,0-13.28,7.33l15.2,83.61L18.65,178.05A8.12,8.12,0,0,0,16.58,181,8.006,8.006,0,0,0,24,192h89.36l19.29,102.85,3.19,17.01-31.65,142.4A8,8,0,0,0,112,464h32a8.018,8.018,0,0,0,4.33-1.27L256,393.51l107.67,69.22A8.018,8.018,0,0,0,368,464h40a8,8,0,0,0,7.71-10.14l-39.5-142.21L398.64,192H488a8,8,0,0,0,5.35-13.95ZM327.66,123.66l18.56,20.88L374.19,176H275.31ZM351.64,304H272l39.1-52.13Zm-23.28-56h43.5l-8.45,45.07ZM256,298.67,221.52,252.7,176,192H336Zm-71.26-26.02,16.16-20.78,6.66,8.87L240,304H160.36ZM308.69,120,256,172.69,203.31,120Zm-72,56H137.82l46.52-52.34ZM44.85,176l54.31-48.88L110.03,176Zm65.83-72L100.12,45.97,163.43,104Zm3.29,16h52.22l-41.77,46.99Zm15.67,72H156l30,40H137.14Zm10.5,56h43.5l-30.12,38.74-4.93,6.33-.76-4.03Zm1.51,200H121.97l12.45-56h94.34Zm-3.68-72,11.35-51.07L228.76,376Zm33.27-56H340.76L256,374.49ZM397.47,448H370.35l-87.11-56h98.68Zm-20-72H283.24l79.96-51.4Zm-2.61-144H326l30-40h26.36Zm12.72-65.01-31.41-35.33L345.81,120h52.22ZM348.57,104l54.58-50.03,8.73-8L401.32,104Zm53.4,72,10.87-48.88L467.15,176Z" style="fill:#348fd9"/><path d="M493.35,178.05l-76.68-69.01,15.2-83.61a7.995,7.995,0,0,0-12.94-7.61q-7.35,18.75-15.78,36.15l8.73-8L401.32,104H375.27q-5.22,8.175-10.69,16h33.45l-10.45,46.99-31.41-35.33q-4.875,6.57-9.95,12.88L374.19,176H318.54q-7.965,8.265-16.24,16H336L256,298.67,221.52,252.7q-6.93,4.155-13.96,8.04L240,304H160.36l24.38-31.35q-15.48,7.605-31.22,14.09l-4.93,6.33-.76-4.03q-7.575,3.03-15.18,5.81l3.19,17.01-31.65,142.4A8,8,0,0,0,112,464h32a8.018,8.018,0,0,0,4.33-1.27L256,393.51l107.67,69.22A8.018,8.018,0,0,0,368,464h40a8,8,0,0,0,7.71-10.14l-39.5-142.21L398.64,192H488a8,8,0,0,0,5.35-13.95ZM311.1,251.87,351.64,304H272ZM328.36,248h43.5l-8.45,45.07ZM141.65,448H121.97l12.45-56h94.34Zm-3.68-72,11.35-51.07L228.76,376Zm33.27-56H340.76L256,374.49ZM397.47,448H370.35l-87.11-56h98.68Zm-20-72H283.24l79.96-51.4Zm-2.61-144H326l30-40h26.36Zm27.11-56,10.87-48.88L467.15,176Z" style="fill:#2d7dbf"/><path d="M448,456v32a8,8,0,0,1-8,8H368a8,8,0,0,1-8-8V456a8,8,0,0,1,8-8h72a8,8,0,0,1,8,8Z" style="fill:#e0e0de"/><path d="M448,456v32a8,8,0,0,1-8,8H380.14a466.659,466.659,0,0,0,63.49-47.13A7.985,7.985,0,0,1,448,456Z" style="fill:#d9d9d7"/><path d="M152,456v32a8,8,0,0,1-8,8H72a8,8,0,0,1-8-8V456a8,8,0,0,1,8-8h72a8,8,0,0,1,8,8Z" style="fill:#e0e0de"/><path d="M152,456v32a8,8,0,0,1-8,8H84.14a466.659,466.659,0,0,0,63.49-47.13A7.985,7.985,0,0,1,152,456Z" style="fill:#d9d9d7"/></g></svg>
