<svg height="512" viewBox="0 0 512 512" width="512" xmlns="http://www.w3.org/2000/svg"><g id="Flat"><path d="m488 288v176a24.006 24.006 0 0 1 -24 24h-176l-24-32h-16l-24 32h-176a23.992 23.992 0 0 1 -23.15-17.69 23.5 23.5 0 0 1 -.85-6.31v-176z" fill="#60d1e0"/><path d="m488 288v176a24.006 24.006 0 0 1 -24 24h-176l-24-32h-16l-24 32h-176a23.992 23.992 0 0 1 -23.15-17.69c128.1-25.55 260.36-80.7 355.16-182.31z" fill="#5bccd9"/><rect fill="#348fd9" height="120" rx="24" width="160" x="64" y="328"/><rect fill="#f35244" height="120" rx="24" width="160" x="288" y="328"/><path d="m128 76a11.984 11.984 0 0 1 -12 12h-1.48a13.476 13.476 0 0 1 -13.07-10.21l-2.05-8.18a17.968 17.968 0 0 0 -35.4 4.36v86.03l48 88v40h-88v-212a52 52 0 1 1 104 0z" fill="#348fd9"/><path d="m400 288h88v-212a52 52 0 0 0 -52-52 52 52 0 0 0 -52 52 12 12 0 0 0 12 12h1.477a13.477 13.477 0 0 0 13.075-10.209l2.045-8.18a17.97 17.97 0 0 1 17.433-13.611 17.969 17.969 0 0 1 17.97 17.97v86.03l-48 88z" fill="#348fd9"/><path d="m95.716 364h56.569v16h-56.569z" fill="#459de6" transform="matrix(.707 -.707 .707 .707 -226.725 196.638)"/><path d="m106.745 384h90.51v16h-90.51z" fill="#459de6" transform="matrix(.707 -.707 .707 .707 -232.666 222.294)"/><path d="m319.716 364h56.569v16h-56.569z" fill="#fc685b" transform="matrix(.707 -.707 .707 .707 -161.117 355.029)"/><path d="m330.745 384h90.51v16h-90.51z" fill="#fc685b" transform="matrix(.707 -.707 .707 .707 -167.058 380.686)"/><g fill="#3086cd"><path d="m24 264h88v24h-88z"/><path d="m400 264h88v24h-88z"/></g></g></svg>