<svg height="512" viewBox="0 0 512 512" width="512" xmlns="http://www.w3.org/2000/svg"><g id="Flat"><path d="m464 160-2.34 24-29.66 304h-160l-12.23-125.4-17.43-178.6-2.34-24z" fill="#f35244"/><path d="m216 112h272v48h-272z" fill="#e0e0de"/><path d="m328 24h40v88h-40z" fill="#f35244"/><path d="m464 160-32 328h-160l-12.23-125.4c63.48-46.79 119.08-112.49 156.14-202.6z" fill="#e64c3f"/><path d="m464 160-2.34 24h-219.32l-2.34-24z" fill="#e64c3f"/><path d="m440 112h48v48h-48z" fill="#d9d9d7"/><path d="m328 424v40a24.006 24.006 0 0 1 -24 24h-256a24.006 24.006 0 0 1 -24-24v-40z" fill="#ffb531"/><rect fill="#7a432a" height="80" rx="40" width="304" x="24" y="344"/><path d="m64 344 62.769 48 73.231-48z" fill="#fbd253"/><rect fill="#92563a" height="80" rx="40" transform="matrix(-1 0 0 -1 352 608)" width="304" x="24" y="264"/><path d="m288 264-62.769 48-73.231-48z" fill="#fbd253"/><path d="m328 264h-304a128 128 0 0 1 128-128h48a127.974 127.974 0 0 1 128 128z" fill="#ffb531"/><path d="m328 264h-215.89c58.41-25.76 112.51-61.1 155.85-108.48a127.891 127.891 0 0 1 60.04 108.48z" fill="#fcac1f"/><g fill="#f98500"><path d="m164.686 168h22.627v16h-22.627z" transform="matrix(.707 -.707 .707 .707 -72.902 176.011)"/><path d="m164.686 168h22.627v16h-22.627z" transform="matrix(.707 -.707 .707 .707 -72.902 176.011)"/><path d="m116.686 168h22.627v16h-22.627z" transform="matrix(.707 -.707 .707 .707 -86.962 142.068)"/><path d="m216 164.686h16v22.627h-16z" transform="matrix(.707 -.707 .707 .707 -58.843 209.941)"/><path d="m188.686 208h22.627v16h-22.627z" transform="matrix(.707 -.707 .707 .707 -94.157 204.699)"/><path d="m92.686 208h22.627v16h-22.627z" transform="matrix(.707 -.707 .707 .707 -122.278 136.814)"/><path d="m144 204.686h16v22.627h-16z" transform="matrix(.707 -.707 .707 .707 -108.215 170.745)"/><path d="m240 204.686h16v22.627h-16z" transform="matrix(.707 -.707 .707 .707 -80.098 238.627)"/></g><path d="m64 288h16v16h-16z" fill="#7a432a"/><path d="m136 304h16v16h-16z" fill="#7a432a"/><path d="m328 424v40a24.006 24.006 0 0 1 -24 24h-212.11c46.51-15.69 91.6-36.65 132.3-64z" fill="#fcac1f"/><path d="m200 368h16v16h-16z" fill="#663723"/><path d="m264 376h16v16h-16z" fill="#663723"/></g></svg>