<svg height="512" viewBox="0 0 512 512" width="512" xmlns="http://www.w3.org/2000/svg"><g id="Flat"><path d="m288 48h200v320h-200z" fill="#804a32"/><path d="m88 48h200v320h-200z" fill="#92563a"/><path d="m120 56h336v280h-336z" fill="#dfcdb3"/><path d="m288 336a32 32 0 0 0 -32-32h-136v-280h136a32 32 0 0 1 32 32z" fill="#f2dec2"/><path d="m408 304h-88a32 32 0 0 0 -32 32v-280a32 32 0 0 1 32-32h136v232z" fill="#ead7bc"/><path d="m264 72v-16h-120v16h72v16h-72v16h72v16h-72v16h72v16h-72v16h72v16h-72v16h72v16h-72v16h72v16h-72v16h120v-16h-32v-16h32v-16h-32v-16h32v-16h-32v-16h32v-16h-32v-16h32v-16h-32v-16h32v-16h-32v-16z" fill="#d9c7ae"/><path d="m432 72v-16h-120v16h72v16h-72v16h72v16h-72v16h72v16h-72v16h72v16h-72v16h72v16h-72v16h120v-16h-32v-16h32v-16h-32v-16h32v-16h-32v-16h32v-16h-32v-16h32v-16h-32v-16z" fill="#d4c2aa"/><path d="m312 248h72v16h-72z" fill="#d4c2aa"/><path d="m408 256h48l-48 48z" fill="#fae5c9"/><rect fill="#e64c3f" height="360" rx="24" width="224" x="24" y="128"/><path d="m248 194.26v269.74a24.006 24.006 0 0 1 -24 24h-176a24.006 24.006 0 0 1 -24-24v-39.67c89.3-43.52 172.01-116.05 224-230.07z" fill="#de4132"/><path d="m56 192h160v72h-160z" fill="#f98500"/><g fill="#ffb531"><path d="m56 296h32v32h-32z"/><path d="m120 296h32v32h-32z"/><path d="m184 296h32v32h-32z"/><path d="m56 360h32v32h-32z"/><path d="m120 360h32v32h-32z"/><path d="m184 360h32v32h-32z"/><path d="m56 424h32v32h-32z"/><path d="m120 424h32v32h-32z"/><path d="m184 424h32v32h-32z"/></g><path d="m176 224h16v16h-16z" fill="#ef5d06"/><path d="m144 224h16v16h-16z" fill="#ef5d06"/><path d="m112 224h16v16h-16z" fill="#ef5d06"/><path d="m152 160h-96v-136l16 8 16-8 16 8 16-8 16 8 16-8z" fill="#ffb531"/><path d="m80 120h48v16h-48z" fill="#f98500"/><path d="m80 88h48v16h-48z" fill="#f98500"/><path d="m80 56h48v16h-48z" fill="#f98500"/><path d="m56 192h160v16h-160z" fill="#f77c00"/><path d="m152 128h16v32h-16z" fill="#de4132"/><path d="m488 416a15.979 15.979 0 0 1 -16 16h-168l-24-16 24-16h168a16 16 0 0 1 16 16z" fill="#804a32"/><path d="m440 472h-80v-16h80a8.009 8.009 0 0 0 8-8v-48h16v48a24.027 24.027 0 0 1 -24 24z" fill="#ffb531"/><path d="m304 400v32l-24-16z" fill="#ffb531"/></g></svg>