<svg height="512" viewBox="0 0 512 512" width="512" xmlns="http://www.w3.org/2000/svg"><g id="Flat"><path d="m488 256c0 128.13-103.87 232-232 232a231.94 231.94 0 0 1 -232-232c0-128.13 103.87-232 232-232a232 232 0 0 1 232 232z" fill="#e0e0de"/><path d="m488 256c0 128.13-103.87 232-232 232a231.767 231.767 0 0 1 -192.11-101.89c136.55-30.71 282.39-115.01 354.38-295.92a231.314 231.314 0 0 1 69.73 165.81z" fill="#d9d9d7"/><path d="m195.05 108.017-6.1-14.792a176.781 176.781 0 0 1 117.332-5.935l-4.564 15.335a160.781 160.781 0 0 0 -106.668 5.392z" fill="#cfcfcd"/><path d="m432 196a60 60 0 0 0 -60-60h-196a96 96 0 0 0 -96 96v60a96 96 0 0 0 96 96h28.733a80.844 80.844 0 0 0 67.267-36 80.844 80.844 0 0 1 67.267-36h32.733a60 60 0 0 0 60-60z" fill="#804a32"/><path d="m372 256h-32.733a80.844 80.844 0 0 0 -67.267 36 80.844 80.844 0 0 1 -67.267 36h-28.733a96 96 0 0 1 -96-96 96 96 0 0 1 96-96h196a60 60 0 0 1 60 60 60 60 0 0 1 -60 60z" fill="#92563a"/><path d="m105.917 192h96.167v16h-96.167z" fill="#78462f" transform="matrix(.707 -.707 .707 .707 -96.317 167.484)"/><path d="m125.632 216h152.735v16h-152.735z" fill="#78462f" transform="matrix(.707 -.707 .707 .707 -99.228 208.457)"/><path d="m181.561 221h166.877v16h-166.877z" fill="#78462f" transform="matrix(.707 -.707 .707 .707 -84.31 254.471)"/><path d="m324.402 190h79.196v16h-79.196z" fill="#78462f" transform="matrix(.707 -.707 .707 .707 -33.389 315.397)"/><path d="m400.449 356.577-13.123-9.154a160.226 160.226 0 0 1 -17.853 21.349l-28.352-9.831-5.242 15.118 19.964 6.922a160.4 160.4 0 0 1 -16.975 11.851l-23.081-17.241-9.574 12.818 17.038 12.728a160.213 160.213 0 0 1 -20.3 7.8l-19.491-21.773-11.92 10.672 13.821 15.436a159.674 159.674 0 0 1 -22.326 2.555l-13.219-21.515-13.632 8.376 7.907 12.87a159.534 159.534 0 0 1 -33.809-6.183l-4.564 15.335a175.4 175.4 0 0 0 34.747 6.609l-11.717 12.121 11.5 11.12 21.923-22.679a175.546 175.546 0 0 0 17.588-1.515l-9.935 12.044 12.344 10.18 22.732-27.55q7.962-2.307 15.653-5.346l-5.611 10.549 14.124 7.514 15.934-29.97q7.168-4.2 13.935-9.07l-2.753 12.571 15.628 3.424 7.2-32.871a176.231 176.231 0 0 0 21.439-25.264z" fill="#7eb457"/><g fill="#313b4c"><path d="m272 160h16v16h-16z"/><path d="m296 224h16v16h-16z"/><path d="m384 200h16v16h-16z"/><path d="m120 184h16v16h-16z"/><path d="m144 408h16v16h-16z"/><path d="m184 432h16v16h-16z"/><path d="m344 88h16v16h-16z"/><path d="m408 328h16v16h-16z"/><path d="m168 288h16v16h-16z"/></g></g></svg>