<svg height="512" viewBox="0 0 512 512" width="512" xmlns="http://www.w3.org/2000/svg"><g id="Flat"><path d="m464 168h-56c-52.617 125.854-194.412 186.385-320.627 135.927-1.225-.491-2.456-1-3.683-1.508-1.891-.79-3.76-1.637-5.634-2.442-11.94-5.144-20.572-11.278-31.337-20.114l-22.719 24.969a232.235 232.235 0 0 0 30.382 45.446c.585.7 1.174 1.39 1.776 2.076a232.424 232.424 0 0 0 85.579 61.531c118.878 49.7 255.547-6.382 305.248-125.261 16.526-39.524 22.301-81.019 17.015-120.624z" fill="#fa9f0c"/><path d="m212.231 373.649q-9.685 0-19.648-.656a321.856 321.856 0 0 1 -100.637-23.279l6.172-14.762a305.374 305.374 0 0 0 95.517 22.075c43.1 2.843 81.893-4.072 115.313-20.543 55.775-27.49 94.52-80.942 115.162-158.871l15.467 4.1c-21.879 82.6-63.449 139.5-123.555 169.126-30.769 15.161-65.61 22.81-103.791 22.81z" fill="#fcac1f"/><path d="m87.373 303.927c-9.145 13.009-23.02 32.636-32.991 46.351a232.235 232.235 0 0 1 -30.382-45.446l22.719-24.969c10.765 8.836 19.4 14.97 31.337 20.114 1.874.805 3.743 1.652 5.634 2.442 1.227.513 2.458 1.017 3.683 1.508z" fill="#e8890c"/><path d="m488 254.69c0 128.85-104.46 233.31-233.31 233.31a232.421 232.421 0 0 1 -102.69-23.76c-.82-.4-1.63-.81-2.44-1.23a232.241 232.241 0 0 1 -45.56-30.21l11.33-31.8c13.34 4 23.67 6.33 36.67 6.47 2.04.02 4.09.08 6.14.08 1.33 0 2.662.04 3.98-.03 141.88-7.52 245.88-103.52 245.43-249.38a253.8 253.8 0 0 0 -5.91-54.14h-33.64v-32h104v32h-39.2a232.352 232.352 0 0 1 55.2 150.69z" fill="#ffb531"/><path d="m184 448v-16c116.659 0 175.48-45.907 200.16-73.271 40.2-44.57 56.307-108.464 47.882-189.906l15.916-1.646c8.911 86.138-8.557 154.191-51.916 202.268-61.642 68.349-159.311 78.555-212.042 78.555z" fill="#ffc361"/><path d="m162.12 407.52c-3.42 15.53-8.65 38.99-12.56 55.49a232.241 232.241 0 0 1 -45.56-30.21l11.33-31.8c13.34 4 23.67 6.33 36.67 6.47 2.04.02 4.09.08 6.14.08 1.33 0 2.66-.01 3.98-.03z" fill="#f98500"/><path d="m168 80h-16v-24a40.045 40.045 0 0 1 40-40v16a24.027 24.027 0 0 0 -24 24z" fill="#92563a"/><path d="m296 107.88v13.2a225.013 225.013 0 0 1 -40.67 129.02 51.351 51.351 0 0 1 -78.37 6.86l-16.96-16.96-16.96 16.96a51.337 51.337 0 0 1 -78.37-6.86 225 225 0 0 1 -40.67-129.02v-13.2a67.882 67.882 0 0 1 115.88-48l20.12 20.12 20.12-20.12c1.25-1.25 2.55-2.45 3.88-3.59a67.883 67.883 0 0 1 112 51.59z" fill="#e0e0de"/><path d="m184 56.29v206.55a51.047 51.047 0 0 1 -7.04-5.88l-16.96-16.96-16.96 16.96a51.337 51.337 0 0 1 -78.37-6.86 225 225 0 0 1 -40.67-129.02v-13.2a67.882 67.882 0 0 1 115.88-48l20.12 20.12 20.12-20.12c1.25-1.25 2.55-2.45 3.88-3.59z" fill="#d9d9d7"/><path d="m139.882 59.882a67.882 67.882 0 0 0 -48-19.882 67.882 67.882 0 0 0 -67.882 67.882v13.2a224.987 224.987 0 0 0 40.67 129.018 51.345 51.345 0 0 0 42.063 21.9 51.342 51.342 0 0 0 36.305-15.038l16.962-16.962v-160z" fill="#7eb457"/><path d="m176 184h-16v-48h16a24 24 0 0 1 24 24 24 24 0 0 1 -24 24z" fill="#cfcfcd"/><g fill="#88c25e"><path d="m52.227 145.891c-4.8-19.733-4.459-36.988 1.013-51.287l14.943 5.719c-4.289 11.209-4.427 25.268-.41 41.786z"/><path d="m74.024 89.943-12.555-9.918c7.464-9.449 15.531-13.025 16.431-13.4l6.2 14.75-3.1-7.375 3.179 7.341a30.7 30.7 0 0 0 -10.155 8.602z"/></g></g></svg>