<svg height="512" viewBox="0 0 512 512" width="512" xmlns="http://www.w3.org/2000/svg"><g id="Flat"><path d="m32 136h224v64h-224z" fill="#ffb531"/><path d="m64 200h192v288h-192z" fill="#ffb531"/><path d="m64 200h192v24h-192z" fill="#fa9f0c"/><path d="m128 200h64v288h-64z" fill="#de4132"/><path d="m256 136h224v64h-224z" fill="#f98500" transform="matrix(-1 0 0 -1 736 336)"/><path d="m256 200h192v288h-192z" fill="#f98500"/><path d="m448 296.76v191.24h-192v-30.92c71.74-33.08 139.85-84.39 192-160.32z" fill="#f77c00"/><path d="m256 200h192v24h-192z" fill="#f07800"/><path d="m320 200h64v288h-64z" fill="#de4132"/><g fill="#f35244"><path d="m160 136-64 152 40-16 24 40 72-176z"/><path d="m352 136 64 152-40-16-24 40-72-176z"/><path d="m232 88h48v48h-48z"/></g><path d="m232 88v48h-32l-18.73-37.47a48 48 0 0 0 -42.94-26.53h-66.33v-16a32 32 0 0 1 32-32h66.33a48 48 0 0 1 42.94 26.53z" fill="#de4132"/><path d="m176 136h-72a32 32 0 0 1 -32-32v-48a32 32 0 0 1 32-32h64a32 32 0 0 0 -32 32v48a32 32 0 0 0 32 32z" fill="#f35244"/><path d="m280 88v48h32l18.73-37.47a48 48 0 0 1 42.94-26.53h66.33v-16a32 32 0 0 0 -32-32h-66.33a48 48 0 0 0 -42.94 26.53z" fill="#de4132"/><path d="m336 136h72a32 32 0 0 0 32-32v-48a32 32 0 0 0 -32-32h-64a32 32 0 0 1 32 32v48a32 32 0 0 1 -32 32z" fill="#f35244"/></g></svg>