<svg height="512" viewBox="0 0 512 512" width="512" xmlns="http://www.w3.org/2000/svg"><g id="Flat"><path d="m344 144-78.14-37.023-14.511 29.023 68.651 32 24 40v24l16 16 24-16z" fill="#fec093"/><path d="m248 216v-40a31.9 31.9 0 0 1 -22.63-9.37l-.17-.17a22.723 22.723 0 0 1 -1.06-30.46 20.072 20.072 0 0 1 1.4-1.54l22.46-22.46h32l20.57 64 11.43 40z" fill="#fec093"/><path d="m300.57 176h-52.57a31.9 31.9 0 0 1 -22.63-9.37l-.17-.17a22.723 22.723 0 0 1 -1.06-30.46h6.56c15.11 0 56.139-2.722 56.139-2.722z" fill="#d3669a"/><path d="m240 24h36.974c15.548 0 30.225 7.978 39.771 21.619l35.255 50.381h-19.588c-14.952 0-29.133-7.382-38.7-20.15l-21.712-27.85h-32z" fill="#f07800"/><path d="m280 112h-32l-8-16h-16a8 8 0 0 1 -8-8v-11.16l-8-8 8-16a28.741 28.741 0 0 1 13.66-24.89 27.991 27.991 0 0 1 16.5-3.88 29.115 29.115 0 0 1 26.86 26.58c.68 8.56-3.71 20.48-9.02 26.19z" fill="#fec093"/><path d="m264 76.84c-29.17-11.66-33.69-38.73-34.34-48.89a27.991 27.991 0 0 1 16.5-3.88 29.115 29.115 0 0 1 26.86 26.58c.68 8.56-3.71 20.48-9.02 26.19z" fill="#f98500"/><path d="m416 376-16 24-72-56-30.86-61.71-17.14-34.29-13.68 35.9-50.32 132.1-24-16 38.6-126.82 17.4-57.18h64l20.91 54.36 19.09 49.64z" fill="#fec9a3"/><path d="m332.91 270.36-35.77 11.93-17.14-34.29-13.68 35.9-35.72-10.72 17.4-57.18h64z" fill="#b281c7"/><path d="m270.2 112a15.879 15.879 0 0 0 -14.2 8.778l-26.418 50.757-53.582-19.535-8-16-24-8-8 40 88 32c10.457 4.753 24.3-.078 29.708-10.213l30.506-54.435a15.879 15.879 0 0 0 -14.014-23.352z" fill="#fec9a3"/><path d="m152.216 406.631 39.784-6.631 24 16-8.186 24-56.373-14.134a9.832 9.832 0 0 1 -7.441-9.537 9.832 9.832 0 0 1 8.216-9.698z" fill="#d3669a"/><path d="m416 376 24 16-25.919 42.866a10.639 10.639 0 0 1 -9.1 5.134 10.639 10.639 0 0 1 -10.432-12.725l5.451-27.275z" fill="#d3669a"/><g fill="#b0b0ae"><path d="m488 464a24 24 0 0 1 -24 24h-416a24 24 0 0 1 0-48h416a24.006 24.006 0 0 1 24 24z"/><rect height="32" rx="16" width="136" x="112" y="232"/><path d="m86.321 137.437a15.889 15.889 0 0 0 -20.732-8.181 15.453 15.453 0 0 0 -8.313 20.4l43.472 100.056a15.755 15.755 0 0 0 20.561 8.243 15.755 15.755 0 0 0 8.34-20.8z"/></g><path d="m160 232h-35.738a16 16 0 0 0 -15.45 11.84l-52.812 196.16h48z" fill="#e0e0de"/><path d="m488 464a24 24 0 0 1 -24 24h-236.28a834.542 834.542 0 0 0 106.72-48h129.56a24.006 24.006 0 0 1 24 24z" fill="#a3a3a1"/></g></svg>