<svg height="512" viewBox="0 0 512 512" width="512" xmlns="http://www.w3.org/2000/svg"><g id="Flat"><path d="m136 24h240v256h-240z" fill="#919c48"/><path d="m344 24h32v256h-32z" fill="#898f3d"/><path d="m240 280h32v192h-32z" fill="#ffb531"/><path d="m176 400h160v32h-160z" fill="#fcac1f"/><path d="m240 280-11.08 32-5.54 16-24.92 72-11.08 32-19.38 56h-32l55.38-160 5.54-16 11.08-32z" fill="#ffb531"/><path d="m376 488h-32l-19.38-56-11.08-32-24.92-72-5.54-16-11.08-32h32l11.08 32 5.54 16z" fill="#ffb531"/><path d="m301.67 181.18a39.867 39.867 0 0 0 -29.67-13.18h-16v-32h-32v32h-16a40.011 40.011 0 0 0 -40 40v72h144v-72a39.847 39.847 0 0 0 -10.33-26.82z" fill="#fec093"/><path d="m312 208v72h-144v-72a39.847 39.847 0 0 1 10.33-26.82 72.022 72.022 0 0 0 123.34 0 39.847 39.847 0 0 1 10.33 26.82z" fill="#4d5e78"/><path d="m224 280h-40a16 16 0 0 1 -16-16v-16h56z" fill="#c84431"/><path d="m224 248h32v32h-32z" fill="#fec9a3"/><path d="m256 248h56a0 0 0 0 1 0 0v16a16 16 0 0 1 -16 16h-40a0 0 0 0 1 0 0v-32a0 0 0 0 1 0 0z" fill="#c84431"/><path d="m280 224h16v24h-16z" fill="#3b495e"/><path d="m192 224h16v24h-16z" fill="#3b495e"/><path d="m200 88h24a0 0 0 0 1 0 0v96a0 0 0 0 1 0 0 24 24 0 0 1 -24-24v-72a0 0 0 0 1 0 0z" fill="#c84431"/><rect fill="#fec9a3" height="80" rx="32" width="64" x="208" y="64"/><path d="m256 56h-24a32 32 0 0 0 -32 32h56v96h8a35.1 35.1 0 0 0 24-33.3v-62.7a32 32 0 0 0 -32-32z" fill="#c84431"/><path d="m176 280h168v32h-168z" fill="#ffb531"/><path d="m208 88h48v16h-48z" fill="#fec093"/><g fill="#fa9f0c"><path d="m196.92 312h32l-5.54 16h-32z"/><path d="m240 312h32v16h-32z"/><path d="m320.62 328h-32l-5.54-16h32z"/></g></g></svg>