<svg height="512" viewBox="0 0 512 512" width="512" xmlns="http://www.w3.org/2000/svg"><g id="Flat"><path d="m72 184h368v192h-368z" fill="#598c44"/><path d="m72 152h368v192h-368z" fill="#5f9548"/><path d="m72 120h368v192h-368z" fill="#699c46"/><path d="m72 88h368v192h-368z" fill="#74a650"/><path d="m392 248a32 32 0 0 1 -32 32h-288v-192h320z" fill="#7eb457"/><path d="m392 120h-272a16 16 0 0 1 -16 16v96a16 16 0 0 1 16 16h246.111a28.944 28.944 0 0 0 25.889-16z" fill="#5f9548"/><circle cx="152" cy="184" fill="#7eb457" r="16"/><circle cx="256" cy="184" fill="#7eb457" r="64"/><path d="m232 88h48v288h-48z" fill="#ffb531"/><path d="m232 280h48v96h-48z" fill="#fa9f0c"/><path d="m400 376v112h-169.34a95.94 95.94 0 0 1 -42.93-10.14l-93.28-46.63a26.169 26.169 0 0 1 -14.45-23.39v-1.74a26.145 26.145 0 0 1 37.03-23.77l90.97 41.67h16a24 24 0 0 1 0-48h61.33l.75-.45a109.177 109.177 0 0 1 104.97-4.03z" fill="#fec9a3"/><path d="m400 389.54v98.46h-155.44c71.253-16.13 125.155-44.46 155.44-98.46z" fill="#fec093"/><path d="m288 432h-64a8 8 0 0 1 0-16h64a8 8 0 0 1 0 16z" fill="#f7ad7c"/><path d="m400 376h88v112h-88z" fill="#4d5e78"/><path d="m440 464a16 16 0 1 1 16-16 16.019 16.019 0 0 1 -16 16z" fill="#313b4c"/><path d="m360 24h-8v192h8a32 32 0 0 1 32 32v-192a32 32 0 0 0 -32-32z" fill="#88c25e"/></g></svg>