<svg height="512" viewBox="0 0 512 512" width="512" xmlns="http://www.w3.org/2000/svg"><g id="Flat"><path d="m184 24h304v416h-304z" fill="#5ac6d4"/><path d="m456 88v352h-304v-416h240z" fill="#60d1e0"/><path d="m456 102.72v337.28h-304v-77.46c114-35.55 230.35-113.48 304-259.82z" fill="#5ac6d4"/><path d="m392 24v64h64z" fill="#8adbe6"/><g fill="#3fb5c4"><path d="m322.068 68.033c17.065-1.9 28.208 17.819 18.069 31.967 10.139 14.148-1 33.863-18.069 31.967a19.581 19.581 0 0 1 -36.136 0c-17.065 1.9-28.208-17.819-18.069-31.967-10.139-14.148 1-33.863 18.069-31.967a19.581 19.581 0 0 1 36.136 0z"/><path d="m336 296h80v16h-80z"/><path d="m336 256h80v16h-80z"/><path d="m336 216h80v16h-80z"/><path d="m336 176h80v16h-80z"/><path d="m328 336h88v16h-88z"/><path d="m312 376h104v16h-104z"/></g><path d="m312 176v111.83a200 200 0 0 1 -95.71 170.66l-48.29 29.51-48.29-29.51a200.015 200.015 0 0 1 -95.71-170.66v-111.83h4.53a263.138 263.138 0 0 0 139.47-40 263.06 263.06 0 0 0 66.92 29.8 262.642 262.642 0 0 0 62.9 10.02q4.815.18 9.65.18z" fill="#348fd9"/><path d="m312 176v111.83a200 200 0 0 1 -95.71 170.66l-48.29 29.51-48.29-29.51a199.875 199.875 0 0 1 -63.94-62.5c94-38.85 183.71-107.56 242.05-220.17q4.815.18 9.65.18z" fill="#3086cd"/><path d="m136.4 431.185a168 168 0 0 1 -80.4-143.352v-81.11a294.716 294.716 0 0 0 112-33.752 294.716 294.716 0 0 0 112 33.752v81.11a168 168 0 0 1 -80.4 143.352l-31.6 19.315z" fill="#2d7dbf"/><path d="m160 200h16v16h-16z" fill="#459de6"/><path d="m80 232h16v16h-16z" fill="#459de6"/><path d="m240 232h16v16h-16z" fill="#459de6"/><path d="m160 400h16v16h-16z" fill="#459de6"/><path d="m224 336h16v16h-16z" fill="#459de6"/><path d="m96 336h16v16h-16z" fill="#459de6"/></g></svg>