<svg height="512" viewBox="0 0 512 512" width="512" xmlns="http://www.w3.org/2000/svg"><g id="Flat"><path d="m472 288-5.52 29-26.48 139h-160l-2.46-12.93-24.02-126.07-5.52-29z" fill="#fa6d00"/><path d="m232 240h256v48h-256z" fill="#ff7d19"/><path d="m352 80h16v160h-16z" fill="#5f9548"/><path d="m360 88h-16a64 64 0 0 1 -64-64h16a64 64 0 0 1 64 64z" fill="#7eb457"/><path d="m360 192h-8a80 80 0 0 1 -80-80h8a80 80 0 0 1 80 80z" fill="#7eb457"/><path d="m360 88h16a64 64 0 0 0 64-64h-16a64 64 0 0 0 -64 64z" fill="#5f9548"/><path d="m360 192h8a80 80 0 0 0 80-80h-8a80 80 0 0 0 -80 80z" fill="#5f9548"/><g fill="#f86400"><path d="m472 288-5.52 29h-212.96l-5.52-29z"/><path d="m472 288-5.52 29-26.48 139h-160l-2.46-12.93c61.17-34.85 118.61-85.05 164.38-155.07z"/><path d="m324.76 456h-44.76l-2.46-12.93-24.02-126.07-5.52-29h51.68a119.812 119.812 0 0 1 4.32 32v108.84a20.856 20.856 0 0 0 9.28 17.35l5.44 3.62a20.708 20.708 0 0 1 6.04 6.19z"/></g><path d="m299.68 288h-67.68v-48h41.44a120.154 120.154 0 0 1 20.12 30.97 117.32 117.32 0 0 1 6.12 17.03z" fill="#fa6d00"/><path d="m192 208h-48l-24-64h96z" fill="#fcac1f"/><path d="m312 467.16a20.84 20.84 0 0 1 -20.84 20.84h-246.32a20.847 20.847 0 0 1 -11.56-38.19l14.72-9.81v-120a120 120 0 1 1 240 0v108.84a20.856 20.856 0 0 0 9.28 17.35l5.44 3.62a20.814 20.814 0 0 1 9.28 17.35z" fill="#ffb531"/><path d="m312 467.16a20.84 20.84 0 0 1 -20.84 20.84h-246.32a20.847 20.847 0 0 1 -11.56-38.19l14.72-9.81v-6.06c84.98-31.34 167.09-83 229.56-162.97a119.552 119.552 0 0 1 10.44 49.03v108.84a20.856 20.856 0 0 0 9.28 17.35l5.44 3.62a20.814 20.814 0 0 1 9.28 17.35z" fill="#fcac1f"/><path d="m176 344h-16a16 16 0 0 1 0-32h16a16.019 16.019 0 0 1 16 16h16a32.036 32.036 0 0 0 -32-32v-16h-16v16a32 32 0 0 0 0 64h16a16 16 0 0 1 0 32h-16a16.019 16.019 0 0 1 -16-16h-16a32.036 32.036 0 0 0 32 32v16h16v-16a32 32 0 0 0 0-64z" fill="#f98500"/><path d="m98.237 253.7 10.954 11.662a64.367 64.367 0 0 1 14.484-10.253l-7.35-14.21a80.268 80.268 0 0 0 -18.088 12.801z" fill="#ffc361"/><path d="m72.966 312v40h16v-40a63.576 63.576 0 0 1 11-35.833l-13.239-8.984a79.507 79.507 0 0 0 -13.761 44.817z" fill="#ffc361"/></g></svg>