<svg height="512" viewBox="0 0 512 512" width="512" xmlns="http://www.w3.org/2000/svg"><g id="Flat"><path d="m106.422 24h317.578a0 0 0 0 1 0 0v448a0 0 0 0 1 0 0h-336a0 0 0 0 1 0 0v-429.578a18.422 18.422 0 0 1 18.422-18.422z" fill="#fa6d00"/><path d="m104 456h320a0 0 0 0 1 0 0v32a0 0 0 0 1 0 0h-320a16 16 0 0 1 -16-16 16 16 0 0 1 16-16z" fill="#ffb531"/><g fill="#f98500"><path d="m120 56h32v96h-32z"/><path d="m184 56h32v96h-32z"/><path d="m296 56h32v96h-32z"/><path d="m360 56h32v96h-32z"/></g><path d="m336 144a40.606 40.606 0 0 0 -4.436.25 32 32 0 0 0 -27.564-48.25c-.226 0-.448.012-.673.017a48 48 0 0 0 -95.327 7.983 32 32 0 0 0 -26.452 50.008 39.991 39.991 0 0 0 26.452 69.992h128a40 40 0 0 0 0-80z" fill="#ffb531"/><path d="m184 368-8 24 56 24h24l64-24v-24z" fill="#f35244"/><path d="m176 392-16 64h64l8-40z" fill="#fec093"/><path d="m256 416v40h64v-64z" fill="#fec093"/><path d="m320 368-24-48 16-56v-64h-32v-48h-48v48h-32v64l16 56-32 48z" fill="#fec093"/><path d="m256 88a32.213 32.213 0 0 0 -4.134.275 31.995 31.995 0 0 1 -27.866 47.725v8a32 32 0 0 0 32 32 32 32 0 0 0 32-32v-24a32 32 0 0 0 -32-32z" fill="#fec9a3"/><path d="m402.346 279.115-36.2-56.885a48 48 0 0 0 -40.5-22.23h-13.646v48h24l32 48-40 32-16-16-32 8 8 32h24a17.26 17.26 0 0 0 23.7 7.434l53.449-29.154a36.165 36.165 0 0 0 13.193-51.165z" fill="#fec093"/><path d="m128 200 56-72v-24h-32l-54.916 68.644a41.462 41.462 0 0 0 -9.084 25.898 41.458 41.458 0 0 0 41.458 41.458h46.542l40 24v-64z" fill="#fec093"/><rect fill="#f35244" height="64" rx="32" width="128" x="192" y="232"/><path d="m312 356h-17.74a11.977 11.977 0 0 1 -11.648-9.115l-5.245-21.173a4 4 0 0 1 7.766-1.924l5.245 21.174a3.991 3.991 0 0 0 3.882 3.038h17.74a4 4 0 0 1 0 8z" fill="#feb784"/><path d="m352 456 72-104-104 40a57.889 57.889 0 0 1 32 51.777z" fill="#4db7e5"/><path d="m352 456 72-104v104z" fill="#348fd9"/></g></svg>