<svg height="512" viewBox="0 0 512 512" width="512" xmlns="http://www.w3.org/2000/svg"><g id="Flat"><path d="m464 104v328a16 16 0 0 1 -16 16h-240a16 16 0 0 1 -16-16v-328z" fill="#348fd9"/><path d="m464 180.44v251.56a16 16 0 0 1 -16 16h-240a16 16 0 0 1 -16-16v-65.99c98.86-31.55 197.38-89.38 272-185.57z" fill="#3086cd"/><path d="m192 104h272v24h-272z" fill="#3086cd"/><path d="m184 24h288a16 16 0 0 1 16 16v64a0 0 0 0 1 0 0h-320a0 0 0 0 1 0 0v-64a16 16 0 0 1 16-16z" fill="#ffb531"/><g fill="#ffc361"><path d="m192 48h16v32h-16z"/><path d="m224 48h16v32h-16z"/><path d="m256 48h16v32h-16z"/><path d="m288 48h16v32h-16z"/><path d="m320 48h16v32h-16z"/><path d="m352 48h16v32h-16z"/><path d="m384 48h16v32h-16z"/><path d="m416 48h16v32h-16z"/><path d="m448 48h16v32h-16z"/></g><path d="m464 152v248h-192a8 8 0 0 1 -8-8v-232a8 8 0 0 1 8-8z" fill="#e0e0de"/><path d="m464 180.44v219.56h-192a8 8 0 0 1 -8-8v-53.98c73.54-34.08 143.6-84.87 200-157.58z" fill="#d9d9d7"/><path d="m376 208h-24v-24h-32v24h-24v32h24v24h32v-24h24z" fill="#348fd9"/><path d="m376 288h64v16h-64z" fill="#bfbfbd"/><path d="m288 288h72v16h-72z" fill="#bfbfbd"/><path d="m288 320h152v16h-152z" fill="#bfbfbd"/><path d="m408 352h32v16h-32z" fill="#bfbfbd"/><path d="m288 352h104v16h-104z" fill="#bfbfbd"/><path d="m192 152h24a24 24 0 0 1 24 24v272a0 0 0 0 1 0 0h-48a0 0 0 0 1 0 0v-296a0 0 0 0 1 0 0z" fill="#3086cd"/><rect fill="#fa6d00" height="352" rx="24" width="192" x="24" y="136"/><path d="m216 234.18v229.82a24.006 24.006 0 0 1 -24 24h-144a24.006 24.006 0 0 1 -24-24v-109.15c67.95-25.78 134.53-64.68 192-120.67z" fill="#f86400"/><circle cx="80" cy="432" fill="#ffb531" r="24"/><circle cx="80" cy="352" fill="#ffb531" r="24"/><circle cx="80" cy="272" fill="#ffb531" r="24"/><circle cx="80" cy="192" fill="#ffb531" r="24"/><circle cx="160" cy="432" fill="#ffb531" r="24"/><circle cx="160" cy="352" fill="#ffb531" r="24"/><circle cx="160" cy="272" fill="#ffb531" r="24"/><circle cx="160" cy="192" fill="#ffb531" r="24"/></g></svg>