<svg height="512" viewBox="0 0 512 512" width="512" xmlns="http://www.w3.org/2000/svg"><g id="Flat"><path d="m224 152h240v240h-240z" fill="#e0e0de"/><path d="m464 248.47v143.53h-145.97z" fill="#d6d6d4"/><path d="m464 221.33v32l-120-53.33-120 53.33v-32l120-53.33z" fill="#d6d6d4"/><path d="m344 152-144 64v-128l144-64z" fill="#f35244"/><path d="m344 152 144 64v-128l-144-64z" fill="#d63f30"/><path d="m200 216v32l144-64 144 64v-32l-144-64z" fill="#bf2d21"/><path d="m384 24h64v96h-64z" fill="#bf2d21"/><path d="m384 24h64v40h-64z" fill="#f35244"/><path d="m360 280h64v112h-64z" fill="#92563a"/><path d="m384 328h16v16h-16z" fill="#e0e0de"/><g fill="#d63f30"><path d="m224 104h24v16h-24z"/><path d="m256 136h24v16h-24z"/><path d="m296 80h24v16h-24z"/></g><path d="m424 144h24v16h-24z" fill="#f35244"/><path d="m24 280h288v144h-288z" fill="#7eb457"/><path d="m312 424h-216l144-144h72z" fill="#79ad54"/><path d="m256 392h-176a24 24 0 0 0 -24-24v-32a24 24 0 0 0 24-24h176a24 24 0 0 0 24 24v32a24 24 0 0 0 -24 24z" fill="#5f9548"/><circle cx="168" cy="352" fill="#7eb457" r="40"/><path d="m88 344h16v16h-16z" fill="#7eb457"/><path d="m232 344h16v16h-16z" fill="#7eb457"/><path d="m24 424h288v32h-288z" fill="#699c46"/><path d="m24 456h288v32h-288z" fill="#5f9548"/><path d="m152 280h32v208h-32z" fill="#ffb531"/><path d="m360 280h64v16h-64z" fill="#804a32"/><path d="m312 280h16v112h-16z" fill="#d6d6d4"/></g></svg>