<svg height="512" viewBox="0 0 512 512" width="512" xmlns="http://www.w3.org/2000/svg"><g id="Flat"><path d="m464 184v288a16 16 0 0 1 -16 16h-384a16 16 0 0 1 -16-16v-288z" fill="#4d5e78"/><path d="m464 214.65v257.35a16 16 0 0 1 -16 16h-330.57z" fill="#7eb457"/><path d="m464 214.65v257.35a16 16 0 0 1 -16 16h-330.57z" fill="#435269"/><path d="m48 184h416v64h-416z" fill="#e0e0de"/><path d="m49.518 73.816h416v64h-416z" fill="#e0e0de" transform="matrix(.97 -.244 .244 .97 -18.042 66.078)"/><g fill="#4d5e78"><path d="m88 248 48-64h64l-48 64z"/><path d="m344 248 48-64h64l-48 64z"/><path d="m216 248 48-64h64l-48 64z"/><path d="m86.789 115.803 62.174 50.344 62.063-15.626-62.174-50.344z"/><path d="m335.042 53.299 62.173 50.343 62.063-15.626-62.173-50.343z"/><path d="m210.916 84.551 62.173 50.344 62.063-15.626-62.173-50.344z"/></g><path d="m48 120v128h48l48-64-48-64z" fill="#fa9f0c"/><path d="m72 144h16v16h-16z" fill="#ffc361"/><path d="m72 208h16v16h-16z" fill="#ffc361"/><path d="m408 456h-304a8 8 0 0 1 -8-8v-160a8 8 0 0 1 8-8h304a8 8 0 0 1 8 8v160a8 8 0 0 1 -8 8zm-296-16h288v-144h-288z" fill="#cfcfcd"/><path d="m200 320h176v16h-176z" fill="#cfcfcd"/><path d="m136 320h48v16h-48z" fill="#cfcfcd"/><path d="m136 360h240v16h-240z" fill="#cfcfcd"/><path d="m136 400h240v16h-240z" fill="#cfcfcd"/><path d="m48 248h416v24h-416z" fill="#435269"/></g></svg>