<svg height="512" viewBox="0 0 512 512" width="512" xmlns="http://www.w3.org/2000/svg"><g id="Flat"><path d="m112 24h288a48 48 0 0 1 48 48v336a16 16 0 0 1 -16 16h-352a16 16 0 0 1 -16-16v-336a48 48 0 0 1 48-48z" fill="#348fd9"/><path d="m80 424h64a0 0 0 0 1 0 0v56a8 8 0 0 1 -8 8h-48a8 8 0 0 1 -8-8v-56a0 0 0 0 1 0 0z" fill="#4d5e78"/><path d="m368 424h64a0 0 0 0 1 0 0v56a8 8 0 0 1 -8 8h-48a8 8 0 0 1 -8-8v-56a0 0 0 0 1 0 0z" fill="#4d5e78"/><circle cx="120" cy="368" fill="#ffb531" r="24"/><circle cx="392" cy="368" fill="#ffb531" r="24"/><path d="m168 344h176v16h-176z" fill="#2d7dbf"/><path d="m168 376h176v16h-176z" fill="#2d7dbf"/><path d="m64 96h384v208h-384z" fill="#4db7e5"/><path d="m448 96v208h-324.3c115.09-36.71 225.76-101.67 300.37-208z" fill="#4aafdb"/><path d="m248 96h16v208h-16z" fill="#45a7d1" transform="matrix(-1 0 0 -1 512 400)"/><path d="m216 236.93-69.946 77.718 11.892 10.704 58.054-64.505v19.153h16v-80h-16z" fill="#e0e0de"/><path d="m365.946 314.648-69.946-77.718v-36.93h-16v80h16v-19.153l58.054 64.505z" fill="#e0e0de"/><rect fill="#e0e0de" height="96" rx="8" width="40" x="24" y="168"/><path d="m64 204.96v43.04a8 8 0 0 1 -8 8h-24a8 8 0 0 1 -8-8v-10.65a459.963 459.963 0 0 0 40-32.39z" fill="#d9d9d7"/><rect fill="#e0e0de" height="96" rx="8" width="40" x="448" y="168"/><g fill="#f35244"><path d="m248 48h16v16h-16z"/><path d="m280 48h16v16h-16z"/><path d="m216 48h16v16h-16z"/><path d="m104 48h16v16h-16z"/><path d="m392 48h16v16h-16z"/></g><path d="m80 424h64v16h-64z" fill="#3b495e"/><path d="m368 424h64v16h-64z" fill="#3b495e"/><path d="m488 212.96v43.04a8 8 0 0 1 -8 8h-24a8 8 0 0 1 -8-8v-10.65a459.963 459.963 0 0 0 40-32.39z" fill="#d9d9d7"/></g></svg>