<svg height="512" viewBox="0 0 512 512" width="512" xmlns="http://www.w3.org/2000/svg"><g id="Flat"><path d="m456 440v4.394a11.606 11.606 0 0 1 -11.606 11.606 11.605 11.605 0 0 1 -7.686-2.91l-13.618-12.036a72.008 72.008 0 0 0 -93.323-92.27l-165.805-324.784-22.952 11.828a24 24 0 0 0 -11.139 30.614l105.706 261.558h40l24.252 42.442a71.988 71.988 0 0 0 107.39 95.7l13.261 11.698a40.641 40.641 0 0 0 26.88 10.16 40.64 40.64 0 0 0 40.64-40.64v-7.36a16 16 0 0 0 -16-16 16 16 0 0 0 -16 16zm-100.423 16a40 40 0 1 1 40-40 40 40 0 0 1 -40 40z" fill="#f98500"/><path d="m148.398 51.774h32v16h-32z" fill="#f07800" transform="matrix(.889 -.458 .458 .889 -9.118 81.955)"/><path d="m163.057 80.22h32v16h-32z" fill="#f07800" transform="matrix(.889 -.458 .458 .889 -20.52 91.831)"/><path d="m177.715 108.665h32v16h-32z" fill="#f07800" transform="matrix(.889 -.458 .458 .889 -31.923 101.707)"/><path d="m192.374 137.11h31.999v16h-31.999z" fill="#f07800" transform="matrix(.889 -.458 .458 .889 -43.326 111.582)"/><path d="m207.032 165.555h32v16h-32z" fill="#f07800" transform="matrix(.889 -.458 .458 .889 -54.728 121.458)"/><path d="m221.69 194h32v16h-32z" fill="#f07800" transform="matrix(.889 -.458 .458 .889 -66.131 131.334)"/><path d="m370.99 35.83-22.95-11.83-149.49 292.82-16.32 31.96a72.023 72.023 0 1 0 29.94 21.66l24.25-42.44h40l33.05-81.78 72.66-179.78a24 24 0 0 0 -11.14-30.61zm-214.57 420.17a40 40 0 1 1 40-40 40 40 0 0 1 -40 40z" fill="#ffb531"/><path d="m198.55 316.82-16.32 31.96a72.023 72.023 0 1 0 29.94 21.66l24.25-42.44h40l33.05-81.78a482.138 482.138 0 0 1 -110.92 70.6zm-42.13 139.18a40 40 0 1 1 40-40 40 40 0 0 1 -40 40z" fill="#fcac1f"/><g fill="#fa9f0c"><path d="m339.601 43.774h16v32h-16z" transform="matrix(.458 -.889 .889 .458 135.242 341.382)"/><path d="m324.943 72.22h16v32h-16z" transform="matrix(.458 -.889 .889 .458 102.012 343.768)"/><path d="m310.285 100.665h16v32h-16z" transform="matrix(.458 -.889 .889 .458 68.783 346.153)"/><path d="m295.627 129.11h16v32h-16z" transform="matrix(.458 -.889 .889 .458 35.554 348.539)"/><path d="m280.968 157.556h16v32h-16z" transform="matrix(.458 -.889 .889 .458 2.324 350.923)"/><path d="m266.309 186h16v32h-16z" transform="matrix(.458 -.889 .889 .458 -30.909 353.3)"/><path d="m251.651 214.446h16v32h-16z" transform="matrix(.458 -.889 .889 .458 -64.137 355.685)"/></g><circle cx="256" cy="288" fill="#f98500" r="16"/></g></svg>