<svg height="512" viewBox="0 0 512 512" width="512" xmlns="http://www.w3.org/2000/svg"><g id="Flat"><path d="m456 112-232 272-100.98-96.75 27.6-31.73 201.38-231.52 32.9 27.84 36.65 31.01 23.51 19.89z" fill="#ffb531"/><path d="m456 112-232 272-100.98-96.75 27.6-31.73c104.97-24.34 211.69-71.57 294.44-152.78z" fill="#fcac1f"/><path d="m421.55 82.85-41.36 47.05-3.73-13.93-14.29-1.92-3.73-13.93-14.3-1.91 40.76-46.37z" fill="#fedf7e"/><path d="m420.43 153.33a8.312 8.312 0 0 0 -4.65-1.33h-313.31l-19.29-91.31a15.99 15.99 0 0 0 -15.65-12.69h-27.53v16h27.25l20.93 97.68 35.91 167.62 10.01 46.7h-5.46c-17.91 0-32.94 14.65-32.64 32.55a32.047 32.047 0 0 0 32 31.45h216a8 8 0 1 0 0-16h-215.54c-8.6 0-16.02-6.6-16.44-15.19a16.021 16.021 0 0 1 15.98-16.81h240a7.994 7.994 0 0 0 7.82-6.32l48-224a8 8 0 0 0 -3.39-8.35zm-156.43 14.67h71.1l-4.08 38.07-.21 1.93h-66.81zm-16 0v40h-66.81l-4.29-40zm-65.1 56h65.1v40h-60.81zm-77-56h54.91l4.29 40h-50.63zm12 56h48.91l4.29 40h-44.63zm20.57 96-8.57-40h42.91l3.06 28.52 1.23 11.48zm12 56-8.57-40h36.91l4.29 40zm97.53 0h-48.81l-4.29-40h53.1zm0-56h-54.81l-2-18.63-2.29-21.37h59.1zm64.81 56h-48.81v-40h53.1zm6-56h-54.81v-40h59.1zm-54.81-56v-40h65.1l-4.29 40zm97.53 112h-32.63l4.29-40h36.91zm12-56h-38.63l4.29-40h42.91zm12-56h-44.63l4.29-40h48.91zm12-56h-50.63l2.14-19.92 2.15-20.08h54.91z" fill="#348fd9"/><path d="m420.43 153.33a8.312 8.312 0 0 0 -4.65-1.33h-35.71q-6.345 8.175-13 16h39.03l-8.57 40h-50.63l2.14-19.92q-8.805 9.27-18.02 17.99c-.68.66-1.37 1.3-2.05 1.93q-8.79 8.25-17.89 16h18.02l-4.29 40h-60.81v-4.32q-15.93 10.755-32.49 20.32h16.49v40h-54.81l-2-18.63q-7.62 3.69-15.32 7.15l1.23 11.48h-28.3q-12.3 4.9-24.71 9.3l10.01 46.7h-5.46c-17.91 0-32.94 14.65-32.64 32.55a32.047 32.047 0 0 0 32 31.45h216a8 8 0 1 0 0-16h-215.54c-8.6 0-16.02-6.6-16.44-15.19a16.021 16.021 0 0 1 15.98-16.81h240a7.994 7.994 0 0 0 7.82-6.32l48-224a8 8 0 0 0 -3.39-8.35zm-269.96 222.67-8.57-40h36.91l4.29 40zm97.53 0h-48.81l-4.29-40h53.1zm64.81 0h-48.81v-40h53.1zm6-56h-54.81v-40h59.1zm42.72 56h-32.63l4.29-40h36.91zm12-56h-38.63l4.29-40h42.91zm12-56h-44.63l4.29-40h48.91z" fill="#3086cd"/><circle cx="160" cy="456" fill="#4db7e5" r="24"/><circle cx="352" cy="456" fill="#4db7e5" r="24"/><circle cx="48" cy="48" fill="#f35244" r="24"/></g></svg>