<svg height="512" viewBox="0 0 512 512" width="512" xmlns="http://www.w3.org/2000/svg"><g id="Flat"><path d="m488 224-40 16-208 208-16 40-114.22-114.22-85.78-85.78 40-16 208-208 16-40 110.33 110.33z" fill="#ffb531"/><path d="m488 224-40 16-208 208-16 40-114.22-114.22c110.54-34.7 221.09-107.08 288.55-239.45z" fill="#fcac1f"/><path d="m448 248a7.976 7.976 0 0 1 -5.657-2.343l-160-160a8 8 0 0 1 11.314-11.314l160 160a8 8 0 0 1 -5.657 13.657z" fill="#fa9f0c"/><path d="m240 456a7.976 7.976 0 0 1 -5.657-2.343l-152-152a8 8 0 0 1 11.314-11.314l152 152a8 8 0 0 1 -5.657 13.657z" fill="#fa9f0c"/><circle cx="296" cy="216" fill="#f98500" r="56"/><path d="m291.716 251.716-35.716-35.716-32-16 19.716-19.716a40 40 0 0 1 56.568 0l35.716 35.716 32 16-19.716 19.716a40 40 0 0 1 -56.568 0z" fill="#f35244"/><path d="m165.8 267.314h40a16 16 0 0 1 16 16v16a16 16 0 0 1 -16 16h-40a24 24 0 0 1 -24-24 24 24 0 0 1 24-24z" fill="#e8770c" transform="matrix(.707 .707 -.707 .707 259.238 -43.229)"/><rect fill="#f09216" height="48" rx="16" transform="matrix(.707 .707 -.707 .707 276.209 -50.258)" width="32" x="182.772" y="284.284"/><rect fill="#f5980c" height="48" rx="16" transform="matrix(.89 .455 -.455 .89 172.803 -63.006)" width="32" x="201.214" y="303.27"/><rect fill="#fa9f0c" height="48" rx="16" transform="matrix(.89 .455 -.455 .89 183.615 -69.621)" width="32" x="220.355" y="322.41"/></g></svg>