<svg height="512" viewBox="0 0 512 512" width="512" xmlns="http://www.w3.org/2000/svg"><g id="Flat"><path d="m243.029 179.029-83.029-83.029 49.112-6.139a17 17 0 0 0 -2.112-33.861h-191v96l131.029 123.029a16.972 16.972 0 0 0 12 4.971 16.971 16.971 0 0 0 12-28.971 16.972 16.972 0 0 0 12 4.971 16.971 16.971 0 0 0 12-28.971 16.972 16.972 0 0 0 12 4.971 16.971 16.971 0 0 0 12-28.971 16.972 16.972 0 0 0 12 4.971 16.971 16.971 0 0 0 12-28.971z" fill="#feb784"/><path d="m224 216a7.976 7.976 0 0 1 -5.657-2.343l-64-64a8 8 0 0 1 11.314-11.314l64 64a8 8 0 0 1 -5.657 13.657z" fill="#f7a468"/><path d="m200 240a7.976 7.976 0 0 1 -5.657-2.343l-64-64a8 8 0 0 1 11.314-11.314l64 64a8 8 0 0 1 -5.657 13.657z" fill="#f7a468"/><path d="m176 264a7.976 7.976 0 0 1 -5.657-2.343l-64-64a8 8 0 0 1 11.314-11.314l64 64a8 8 0 0 1 -5.657 13.657z" fill="#f7a468"/><circle cx="68" cy="332" fill="#804a32" r="44"/><path d="m440 216v160h-260a100 100 0 1 1 0-200h28l32-24 8 24h40a32 32 0 0 1 32 32v56a8 8 0 0 0 8 8h32l27.17-31.7a69.6 69.6 0 0 1 52.83-24.3z" fill="#fec9a3"/><path d="m261.657 213.657-11.314-11.314 4.687-4.687a30.426 30.426 0 0 0 8.97-21.656h16a46.325 46.325 0 0 1 -13.656 32.97z" fill="#feb784"/><path d="m256 376h-76a99.639 99.639 0 0 1 -70.62-29.2l-.09-.09a100.016 100.016 0 0 1 44.23-167.16 511.755 511.755 0 0 1 50.43 72.5l-11.95 11.95a22.627 22.627 0 1 0 32 32l1.83-1.83a532.1 532.1 0 0 1 30.17 81.83z" fill="#92563a"/><path d="m223.589 234.53-15.178-5.06.844-2.534a28.453 28.453 0 0 0 -6.912-29.279l11.314-11.314a44.368 44.368 0 0 1 10.777 45.657z" fill="#feb784"/><path d="m440 294.02v81.98h-98.86a462.721 462.721 0 0 0 98.86-81.98z" fill="#fec093"/><path d="m256 376h-76a99.639 99.639 0 0 1 -70.62-29.2 507.938 507.938 0 0 0 91.03-45.48 22.61 22.61 0 0 0 23.59-5.32l1.83-1.83a532.1 532.1 0 0 1 30.17 81.83z" fill="#875036"/><path d="m155.029 227.029-83.029-83.029 49.112-6.139a17 17 0 0 0 -2.112-33.861h-103v176l43.029 43.029a16.972 16.972 0 0 0 12 4.971 16.971 16.971 0 0 0 12-28.971 16.972 16.972 0 0 0 12 4.971 16.971 16.971 0 0 0 12-28.971 16.972 16.972 0 0 0 12 4.971 16.971 16.971 0 0 0 12-28.971 16.972 16.972 0 0 0 12 4.971 16.971 16.971 0 0 0 12-28.971z" fill="#fec9a3"/><g fill="#feb784"><path d="m136 264a7.976 7.976 0 0 1 -5.657-2.343l-64-64a8 8 0 0 1 11.314-11.314l64 64a8 8 0 0 1 -5.657 13.657z"/><path d="m112 288a7.976 7.976 0 0 1 -5.657-2.343l-64-64a8 8 0 0 1 11.314-11.314l64 64a8 8 0 0 1 -5.657 13.657z"/><path d="m88 312a7.976 7.976 0 0 1 -5.657-2.343l-64-64a8 8 0 0 1 11.314-11.314l64 64a8 8 0 0 1 -5.657 13.657z"/></g><path d="m48 376h440a0 0 0 0 1 0 0v80a0 0 0 0 1 0 0h-440a24 24 0 0 1 -24-24v-32a24 24 0 0 1 24-24z" fill="#f7afaf"/><path d="m424 200h64v256h-64z" fill="#e0e0de"/><path d="m408 376h16v80h-16z" fill="#f1a9a9"/></g></svg>