<svg height="512" viewBox="0 0 512 512" width="512" xmlns="http://www.w3.org/2000/svg"><g id="Flat"><path d="m144 232-32-32-16 16-16-16-16 16-16-16-24 24 64 64z" fill="#5f9548"/><path d="m352 24-288 288 104 104 288-288v-64l-40-40z" fill="#7eb457"/><path d="m168 488 288-288v-72l-288 288z" fill="#74a650"/><path d="m64 384v-72l104 104v72z" fill="#88c25e"/><path d="m131.999 289.088h16.001v101.823h-16.001z" fill="#74a650" transform="matrix(.707 -.707 .707 .707 -199.411 198.579)"/><path d="m255.22 285.469-102.178-102.359a23.994 23.994 0 0 0 -41.042 16.89v64l104 104 48-48v-16a23.926 23.926 0 0 0 -8.78-18.531z" fill="#88c25e"/><path d="m216 368 48-48v-16a24 24 0 0 0 -24-24 24 24 0 0 0 -24 24z" fill="#74a650"/><circle cx="152" cy="248" fill="#5f9548" r="16"/><circle cx="184" cy="280" fill="#5f9548" r="16"/><path d="m80 360h16v16h-16z" fill="#5f9548"/><path d="m128 416h16v16h-16z" fill="#5f9548"/><path d="m253.373 130.461h45.255v147.078h-45.255z" fill="#348fd9" transform="matrix(.707 -.707 .707 .707 -63.411 254.912)"/><path d="m285.373 98.461h45.255v147.078h-45.255z" fill="#b281c7" transform="matrix(.707 -.707 .707 .707 -31.411 268.167)"/><path d="m317.373 66.461h45.255v147.078h-45.255z" fill="#f35244" transform="matrix(.707 -.707 .707 .707 .589 281.421)"/><path d="m349.373 34.461h45.255v147.078h-45.255z" fill="#ffb531" transform="matrix(.707 -.707 .707 .707 32.589 294.676)"/><g fill="#d9d9d7"><path d="m328 192h16v16h-16z"/><path d="m240 168h16v16h-16z"/><path d="m296 224h16v16h-16z"/><path d="m272 136h16v16h-16z"/><path d="m304 104h16v16h-16z"/><path d="m360 160h16v16h-16z"/><path d="m336 72h16v16h-16z"/><path d="m392 128h16v16h-16z"/></g><path d="m456 200 32 32-16 16 16 16-16 16 16 16-24 24-64-64z" fill="#5f9548"/><path d="m320 56-32-32-16 16-16-16-16 16-16-16-24 24 64 64z" fill="#5f9548"/><path d="m288 368 32 32-16 16 16 16-16 16 16 16-24 24-64-64z" fill="#5f9548"/></g></svg>