<svg height="512" viewBox="0 0 512 512" width="512" xmlns="http://www.w3.org/2000/svg"><g id="Flat"><path d="m72 88h400a16 16 0 0 1 16 16v272a16 16 0 0 1 -16 16h-400a48 48 0 0 1 -48-48v-208a48 48 0 0 1 48-48z" fill="#6e3c26"/><path d="m56 152h432a0 0 0 0 1 0 0v224a16 16 0 0 1 -16 16h-400a48 48 0 0 1 -48-48v-160a32 32 0 0 1 32-32z" fill="#804a32"/><path d="m488 216h-464v128a48 48 0 0 0 48 48h400a16 16 0 0 0 16-16z" fill="#875036"/><path d="m440 216h16v176h-16z" fill="#804a32"/><path d="m440 200v272a16 16 0 0 1 -16 16h-352a48 48 0 0 1 -47.9-44.88c-.07-1.03-.1-2.07-.1-3.12v-304a48 48 0 0 0 48 48h352a16 16 0 0 1 16 16z" fill="#92563a"/><path d="m440 220.03v251.97a16 16 0 0 1 -16 16h-352a48 48 0 0 1 -47.9-44.88c151.83-25.5 313.49-90.63 415.9-223.09z" fill="#875036"/><path d="m360 152h-240l120-120z" fill="#74a650"/><path d="m408 152h-240l120-120z" fill="#79ad54"/><path d="m456 152h-240l120-120z" fill="#7eb457"/><path d="m312 104-48 48h144l-48-48a33.941 33.941 0 0 1 -48 0z" fill="#5f9548"/><g fill="#6e3c26"><path d="m104 208h32v16h-32z"/><path d="m160 208h32v16h-32z"/><path d="m216 208h32v16h-32z"/><path d="m272 208h32v16h-32z"/><path d="m328 208h32v16h-32z"/><path d="m104 448h32v16h-32z"/><path d="m48 208h32v16h-32z"/><path d="m48 448h32v16h-32z"/><path d="m160 448h32v16h-32z"/><path d="m216 448h32v16h-32z"/><path d="m272 448h32v16h-32z"/><path d="m328 448h32v16h-32z"/><path d="m400 448h-16v16h24a8 8 0 0 0 8-8v-24h-16z"/><path d="m400 376h16v32h-16z"/><path d="m400 320h16v32h-16z"/><path d="m400 264h16v32h-16z"/><path d="m408 208h-24v16h16v16h16v-24a8 8 0 0 0 -8-8z"/></g><path d="m328 280h40v112h-40z" fill="#ffb531"/><path d="m352 280h16v112h-16z" fill="#fa9f0c"/></g></svg>